 <svg width="128" height="128" viewBox="0 0 1272 1197" fill="none" xmlns="http://www.w3.org/2000/svg">
        <path d="M908.083 598.043L878.363 609.55L867.354 638.955L925.205 697.066L751.853 871.199L677.105 796.114L735.278 737.679C740.223 741.199 746.038 742.971 751.853 742.971C759.233 742.971 766.589 740.15 772.23 734.484L867.354 638.93L861.813 622.605L826.626 598.018L751.878 673.103L675.639 596.52L636.376 638.93L602.829 590.779L520.875 673.103L441.654 593.525L405.398 638.93L500.523 734.484C506.139 740.125 513.519 742.971 520.9 742.971C526.715 742.971 532.505 741.174 537.475 737.679L595.648 796.114L520.9 871.199L347.523 697.066L405.373 638.955L371.851 590.779L286.443 676.623C275.186 687.93 275.186 706.252 286.443 717.535L500.523 932.58C506.139 938.222 513.519 941.067 520.9 941.067C528.28 941.067 535.636 938.247 541.277 932.58L636.401 837.027L731.526 932.58C737.142 938.222 744.522 941.067 751.903 941.067C759.283 941.067 766.639 938.247 772.279 932.58L986.36 717.535C997.617 706.227 997.617 687.905 986.36 676.623L908.133 598.043H908.083ZM578.501 697.091L636.352 638.98L694.202 697.091L636.352 755.202L578.501 697.091Z" fill="#403B65"/>
        <path d="M347.523 498.995L520.9 324.862L595.648 399.947L536.133 459.73C537.45 460.679 538.742 461.702 539.935 462.9L577.184 500.318L636.376 440.859L696.513 501.266L733.762 463.849C734.955 462.65 736.223 461.627 737.564 460.678L677.13 399.972L751.878 324.887L925.229 499.02L867.379 557.131L880.848 583.191L908.108 598.068L986.335 519.488C997.592 508.181 997.592 489.859 986.335 478.576L772.205 263.481C760.948 252.173 742.708 252.173 731.476 263.481L636.352 359.034L541.252 263.481C529.995 252.173 511.755 252.173 500.523 263.481L286.443 478.551C275.186 489.859 275.186 508.181 286.443 519.463L364.67 598.043L409.797 561.549L347.548 499.02L347.523 498.995Z" fill="#403B65"/>
        <g style="mix-blend-mode:multiply" opacity="0.7">
        <path d="M446.104 598.032L405.374 638.947L429.675 663.357L470.406 622.443L446.104 598.032Z" fill="#403B65"/>
        </g>
        <g style="mix-blend-mode:multiply" opacity="0.7">
        <path d="M660.58 663.293L701.309 622.356L679.043 599.99L677.055 598.043L636.376 638.98L637.147 639.779L660.58 663.293Z" fill="#403B65"/>
        </g>
        <g style="mix-blend-mode:multiply" opacity="0.7">
        <path d="M537.449 737.704L562.1 762.441L602.829 721.529L578.501 697.091L537.449 737.704Z" fill="#403B65"/>
        </g>
        <g style="mix-blend-mode:multiply" opacity="0.7">
        <path d="M677.104 796.137L636.374 837.051L660.71 861.497L701.44 820.583L677.104 796.137Z" fill="#403B65"/>
        </g>
        <g style="mix-blend-mode:multiply" opacity="0.7">
        <path d="M677.082 399.957L636.351 440.871L660.67 465.3L701.4 424.386L677.082 399.957Z" fill="#403B65"/>
        </g>
        <g style="mix-blend-mode:multiply" opacity="0.7">
        <path d="M826.608 598.042L802.289 622.47L843.02 663.385L867.338 638.956L826.608 598.042Z" fill="#403B65"/>
        </g>
        <g style="mix-blend-mode:multiply" opacity="0.7">
        <path d="M694.226 697.091L669.898 721.529L710.627 762.441L735.278 737.704L694.226 697.091Z" fill="#403B65"/>
        </g>
        <path d="M772.205 461.552C762.141 451.443 746.51 450.419 735.278 458.382C733.961 459.331 732.669 460.354 731.476 461.552L636.351 557.131L541.227 461.552C540.034 460.354 538.766 459.331 537.425 458.382C526.193 450.419 510.537 451.443 500.498 461.552L364.645 598.018L405.373 638.93L520.85 522.933L636.326 638.955L751.803 522.908L867.28 638.93L908.008 598.018L772.155 461.552H772.205Z" fill="url(#paint0_linear_2_21)"/>
        <defs>
        <linearGradient id="paint0_linear_2_21" x1="842.679" y1="679.293" x2="605.797" y2="559.24" gradientUnits="userSpaceOnUse">
        <stop offset="0.16" stop-color="#403B65"/>
        <stop offset="1" stop-color="#DC0451"/>
        </linearGradient>
        </defs>
        </svg>