<?xml version="1.0" encoding="UTF-8" standalone="no"?><!-- Generator: Gravit.io -->
<svg xmlns="http://www.w3.org/2000/svg" style="isolation:isolate"
     viewBox="0 0 48 45.733" width="48pt" height="45.733pt">
    <defs>
        <clipPath id="_clipPath_k7vwntfuhUrYf0xVutzDVs5lQ3fB5OqS">
            <rect width="48" height="45.733"/>
        </clipPath>
    </defs>
    <g clip-path="url(#_clipPath_k7vwntfuhUrYf0xVutzDVs5lQ3fB5OqS)">
        <g>
            <g>
                <g>
                    <clipPath id="_clipPath_3vVvnzk9qvT6sxgmLjcwFIXjyDE5Ux2j">
                        <path d=" M 30.619 13.558 C 30.528 13.62 30.443 13.69 30.365 13.767 L 27.869 16.264 L 27.869 16.264 L 23.998 20.138 L 24.002 20.142 L 23.995 20.138 L 23.989 20.142 L 23.992 20.138 L 20.121 16.263 L 20.121 16.263 L 17.624 13.767 C 17.547 13.689 17.462 13.618 17.37 13.557 C 16.604 13.018 15.562 13.106 14.898 13.767 L 8.529 20.138 L 5.803 22.864 L 8.529 25.594 L 11.258 22.864 L 16.263 17.859 L 16.263 17.859 L 21.269 22.864 L 21.272 22.861 L 21.269 22.864 L 23.995 25.59 L 26.721 22.864 L 26.717 22.861 L 26.721 22.864 L 31.729 17.859 L 31.729 17.859 L 36.735 22.864 L 39.461 25.594 L 42.19 22.864 L 39.461 20.138 L 33.095 13.767 C 32.734 13.406 32.244 13.202 31.734 13.202 C 31.335 13.204 30.946 13.329 30.62 13.559"
                              fill="rgb(255,255,255)"/>
                    </clipPath>
                    <g clip-path="url(#_clipPath_3vVvnzk9qvT6sxgmLjcwFIXjyDE5Ux2j)">
                        <g>
                            <linearGradient id="_lgradient_0" x1="0" y1="0.5" x2="1" y2="0.5"
                                            gradientTransform="matrix(46.554,0,0,41.996,0.72,-1.688)"
                                            gradientUnits="userSpaceOnUse">
                                <stop offset="0%" stop-opacity="1" style="stop-color:rgb(221,26,88)"/>
                            </linearGradient>
                            <path d=" M 34.703 40.308 L 0.72 23.006 L 13.29 -1.688 L 47.274 15.613 L 34.703 40.308 Z "
                                  fill="url(#_lgradient_0)"/>
                        </g>
                    </g>
                </g>
                <g>
                    <path d=" M 42.194 22.868 L 39.467 25.598 L 43.338 29.469 L 31.729 41.078 L 26.724 36.073 L 30.618 32.178 C 31.386 32.719 32.431 32.629 33.094 31.965 L 39.467 25.594 L 36.738 22.864 L 31.729 27.873 L 26.727 22.868 L 26.727 22.868 L 24.001 25.594 L 21.277 22.868 L 21.277 22.868 L 16.265 27.873 L 11.26 22.868 L 8.532 25.598 L 14.899 31.965 C 15.562 32.629 16.607 32.719 17.374 32.178 L 21.269 36.073 L 16.264 41.078 L 4.655 29.468 L 8.529 25.594 L 5.803 22.864 L 0.564 28.106 C -0.188 28.86 -0.188 30.079 0.564 30.833 L 14.899 45.168 C 15.261 45.53 15.752 45.733 16.264 45.733 C 16.776 45.733 17.267 45.53 17.629 45.168 L 23.998 38.795 L 30.368 45.165 C 30.73 45.527 31.221 45.731 31.733 45.731 C 32.245 45.731 32.736 45.527 33.098 45.165 L 47.436 30.833 C 48.188 30.079 48.188 28.86 47.436 28.106 L 42.194 22.868 Z  M 20.124 29.471 L 23.998 25.598 L 27.872 29.472 L 23.998 33.346 L 20.124 29.471 Z "
                          fill="rgb(64,59,101)"/>
                    <path d=" M 23.998 20.138 L 23.995 20.138 L 23.998 20.142 L 23.998 20.138 Z "
                          fill="rgb(64,59,101)"/>
                    <path d=" M 4.655 16.263 L 16.263 4.654 L 21.269 9.659 L 17.374 13.554 C 17.464 13.616 17.549 13.687 17.628 13.764 L 20.124 16.261 L 23.998 12.387 L 27.872 16.261 L 30.369 13.764 C 30.448 13.687 30.533 13.617 30.623 13.554 L 26.728 9.659 L 31.73 4.654 L 43.339 16.263 L 39.467 20.138 L 42.193 22.864 L 47.433 17.625 C 48.184 16.872 48.184 15.652 47.433 14.899 L 33.094 0.564 C 32.34 -0.188 31.119 -0.188 30.365 0.564 L 23.998 6.934 L 17.628 0.564 C 16.875 -0.188 15.655 -0.188 14.902 0.564 L 0.564 14.899 C -0.188 15.652 -0.188 16.872 0.564 17.625 L 5.803 22.864 L 8.529 20.137 L 4.655 16.263 Z "
                          fill="rgb(64,59,101)"/>
                    <g>
                        <g>
                            <clipPath id="_clipPath_gjbqHIZpZe8zJ5MPSguWSkhYBKvDO6hE">
                                <rect x="8.529" y="22.867" width="4.355" height="4.355"
                                      transform="matrix(0.707,-0.707,0.707,0.707,-14.573,14.906)"
                                      fill="rgb(255,255,255)"/>
                            </clipPath>
                            <g clip-path="url(#_clipPath_gjbqHIZpZe8zJ5MPSguWSkhYBKvDO6hE)">
                                <g>
                                    <rect x="8.777" y="23.894" width="3.857" height="2.303"
                                          transform="matrix(0.707,-0.707,0.707,0.707,-14.574,14.905)"
                                          fill="rgb(47,45,74)"/>
                                </g>
                            </g>
                        </g>
                    </g>
                    <g>
                        <g>
                            <clipPath id="_clipPath_msVuMcBdnrrE4X590OyfaMgSyyk53VmL">
                                <rect x="23.995" y="22.867" width="4.352" height="4.352" transform="matrix(1,0,0,1,0,0)"
                                      fill="rgb(255,255,255)"/>
                            </clipPath>
                            <g clip-path="url(#_clipPath_msVuMcBdnrrE4X590OyfaMgSyyk53VmL)">
                                <g>
                                    <path d=" M 25.617 27.215 L 28.347 24.486 L 26.853 22.995 L 26.721 22.867 L 23.995 25.596 L 24.049 25.65 L 25.617 27.215 Z "
                                          fill="rgb(47,45,74)"/>
                                </g>
                            </g>
                        </g>
                    </g>
                    <g>
                        <g>
                            <clipPath id="_clipPath_QccicRJuacriZsrHzuiV4jMgX8W6cXJX">
                                <rect x="17.371" y="29.471" width="4.379" height="4.355" transform="matrix(1,0,0,1,0,0)"
                                      fill="rgb(255,255,255)"/>
                            </clipPath>
                            <g clip-path="url(#_clipPath_QccicRJuacriZsrHzuiV4jMgX8W6cXJX)">
                                <g>
                                    <path d=" M 17.371 32.177 L 19.023 33.826 L 21.749 31.1 L 20.121 29.471 L 17.371 32.177 Z "
                                          fill="rgb(47,45,74)"/>
                                </g>
                            </g>
                        </g>
                    </g>
                    <g>
                        <g>
                            <clipPath id="_clipPath_Efq3AyhZo26FdNgoXpb4iDE9b2mvYd8o">
                                <rect x="23.998" y="36.075" width="4.355" height="4.355"
                                      transform="matrix(0.707,-0.707,0.707,0.707,-19.382,29.713)"
                                      fill="rgb(255,255,255)"/>
                            </clipPath>
                            <g clip-path="url(#_clipPath_Efq3AyhZo26FdNgoXpb4iDE9b2mvYd8o)">
                                <g>
                                    <path d=" M 23.997 38.803 L 26.724 36.075 L 28.353 37.704 L 25.625 40.431 L 23.997 38.803 Z "
                                          fill="rgb(47,45,74)"/>
                                </g>
                            </g>
                        </g>
                    </g>
                    <g>
                        <g>
                            <clipPath id="_clipPath_n93cH2lDgnMj5jknxTGWUkipnbmHbasV">
                                <rect x="23.997" y="9.66" width="4.355" height="4.355"
                                      transform="matrix(0.707,-0.707,0.707,0.707,-0.704,21.975)"
                                      fill="rgb(255,255,255)"/>
                            </clipPath>
                            <g clip-path="url(#_clipPath_n93cH2lDgnMj5jknxTGWUkipnbmHbasV)">
                                <g>
                                    <rect x="24.245" y="10.687" width="3.857" height="2.303"
                                          transform="matrix(0.707,-0.707,0.707,0.707,-0.705,21.975)"
                                          fill="rgb(47,45,74)"/>
                                </g>
                            </g>
                        </g>
                    </g>
                    <g>
                        <g>
                            <clipPath id="_clipPath_IZ8fr9pQ650MaHKaeWDJ9K8Xoq9z5ygM">
                                <rect x="35.106" y="22.867" width="4.354" height="4.354"
                                      transform="matrix(0.707,-0.707,0.707,0.707,-6.789,33.699)"
                                      fill="rgb(255,255,255)"/>
                            </clipPath>
                            <g clip-path="url(#_clipPath_IZ8fr9pQ650MaHKaeWDJ9K8Xoq9z5ygM)">
                                <g>
                                    <rect x="36.134" y="23.113" width="2.302" height="3.857"
                                          transform="matrix(0.707,-0.707,0.707,0.707,-6.786,33.699)"
                                          fill="rgb(47,45,74)"/>
                                </g>
                            </g>
                        </g>
                    </g>
                    <g>
                        <g>
                            <clipPath id="_clipPath_5sIB7khCuIZGIsx0RSCEjUSet6fUTRlV">
                                <rect x="26.24" y="29.454" width="4.379" height="4.372" transform="matrix(1,0,0,1,0,0)"
                                      fill="rgb(255,255,255)"/>
                            </clipPath>
                            <g clip-path="url(#_clipPath_5sIB7khCuIZGIsx0RSCEjUSet6fUTRlV)">
                                <g>
                                    <path d=" M 27.856 29.454 L 27.869 29.471 L 26.24 31.099 L 28.97 33.825 L 30.619 32.177 L 27.856 29.454 Z "
                                          fill="rgb(47,45,74)"/>
                                </g>
                            </g>
                        </g>
                    </g>
                </g>
            </g>
        </g>
    </g>
</svg>